<svg width="16" height="16" fill="none" xmlns="http://www.w3.org/2000/svg">
    <path d="M8.011 10.269c1.308 0 2.368-1.027 2.368-2.295 0-1.267-1.06-2.294-2.368-2.294-1.307 0-2.367 1.027-2.367 2.294 0 1.268 1.06 2.295 2.367 2.295z" fill="#8391B2"/>
    <path d="M11.677 8.102c0 1.962-1.641 3.551-3.665 3.551s-3.665-1.59-3.665-3.55c0-.352.053-.691.151-1.012H3.416v4.98c0 .258.21.469.468.469h8.21a.47.47 0 00.47-.469v-4.98h-1.039c.098.32.152.66.152 1.011zM10.694 5.747h1.333c.292 0 .53-.239.53-.53V3.945a.532.532 0 00-.53-.531h-1.333a.532.532 0 00-.53.53v1.271c0 .292.238.53.53.53z" fill="#8391B2"/>
    <path d="M8 0a8 8 0 100 16A8 8 0 008 0zm4.382 13.895H3.618c-.832 0-1.513-.616-1.513-1.513V3.618c0-.897.68-1.513 1.513-1.513h8.764c.832 0 1.513.616 1.513 1.513v8.764c0 .897-.68 1.513-1.513 1.513z" fill="#8391B2"/>
</svg>
