<svg width="16" height="16" fill="none" xmlns="http://www.w3.org/2000/svg">
    <path d="M8 0a8 8 0 100 16A8 8 0 008 0zm4.838 5.867c.003.094.005.189.005.284 0 3.417-2.6 6.952-6.952 6.952-1.33 0-2.625-.38-3.745-1.098a.059.059 0 01-.024-.07.06.06 0 01.063-.039 4.77 4.77 0 003.414-.894 2.481 2.481 0 01-2.154-1.714.06.06 0 01.012-.058.06.06 0 01.055-.019c.275.052.555.056.825.012a2.49 2.49 0 01-1.744-2.37V6.82a.06.06 0 01.088-.05c.267.147.563.243.866.28a2.479 2.479 0 01-.598-3.19.059.059 0 01.046-.03.058.058 0 01.05.022A6.844 6.844 0 007.92 6.358a2.485 2.485 0 014.223-2.21 4.784 4.784 0 001.488-.574.06.06 0 01.067.004.06.06 0 01.019.065c-.157.49-.462.917-.872 1.225.386-.067.761-.18 1.118-.339a.06.06 0 01.073.088 4.945 4.945 0 01-1.197 1.25z" fill="#8391B2"/>
</svg>
